<svg width="26" height="26" viewBox="0 0 26 26" fill="none" xmlns="http://www.w3.org/2000/svg">
<g id="bx:cart">
<path id="Vector" d="M23.6405 8.05026C23.5408 7.90625 23.4077 7.78855 23.2527 7.70723C23.0976 7.62591 22.9251 7.5834 22.75 7.58334H7.94404L6.69388 4.5825C6.52996 4.18733 6.25238 3.84973 5.89635 3.6125C5.54032 3.37527 5.12187 3.24911 4.69404 3.25H2.16663V5.41667H4.69404L9.83337 17.7504C9.91569 17.9478 10.0546 18.1163 10.2325 18.2349C10.4104 18.3534 10.6195 18.4167 10.8333 18.4167H19.5C19.9517 18.4167 20.3558 18.1361 20.515 17.7147L23.765 9.04801C23.8265 8.88401 23.8472 8.70757 23.8255 8.5338C23.8038 8.36003 23.7403 8.19411 23.6405 8.05026ZM18.7492 16.25H11.5559L8.84754 9.75H21.1867L18.7492 16.25Z" fill="white"/>
<path id="Vector_2" d="M11.375 22.75C12.2725 22.75 13 22.0225 13 21.125C13 20.2275 12.2725 19.5 11.375 19.5C10.4775 19.5 9.75 20.2275 9.75 21.125C9.75 22.0225 10.4775 22.75 11.375 22.75Z" fill="white"/>
<path id="Vector_3" d="M18.9584 22.75C19.8558 22.75 20.5834 22.0225 20.5834 21.125C20.5834 20.2275 19.8558 19.5 18.9584 19.5C18.0609 19.5 17.3334 20.2275 17.3334 21.125C17.3334 22.0225 18.0609 22.75 18.9584 22.75Z" fill="white"/>
</g>
</svg>
