<svg width="26" height="25" viewBox="0 0 26 25" fill="none" xmlns="http://www.w3.org/2000/svg">
<g id="discord">
<path id="Vector" d="M16.8724 11.875C16.8724 12.6375 16.3099 13.2625 15.5974 13.2625C14.8974 13.2625 14.3224 12.6375 14.3224 11.875C14.3224 11.1125 14.8849 10.4875 15.5974 10.4875C16.3099 10.4875 16.8724 11.1125 16.8724 11.875ZM11.0349 10.4875C10.3224 10.4875 9.75986 11.1125 9.75986 11.875C9.75986 12.6375 10.3349 13.2625 11.0349 13.2625C11.7474 13.2625 12.3099 12.6375 12.3099 11.875C12.3224 11.1125 11.7474 10.4875 11.0349 10.4875ZM24.2349 2.575V25C21.0857 22.2171 22.0929 23.1383 18.4349 19.7375L19.0974 22.05H4.92236C3.50986 22.05 2.35986 20.9 2.35986 19.475V2.575C2.35986 1.15 3.50986 0 4.92236 0H21.6724C23.0849 0 24.2349 1.15 24.2349 2.575ZM20.6724 14.425C20.6724 10.4 18.8724 7.1375 18.8724 7.1375C17.0724 5.7875 15.3599 5.825 15.3599 5.825L15.1849 6.025C17.3099 6.675 18.2974 7.6125 18.2974 7.6125C15.3281 5.98511 11.8401 5.98481 8.95986 7.25C8.49736 7.4625 8.22236 7.6125 8.22236 7.6125C8.22236 7.6125 9.25986 6.625 11.5099 5.975L11.3849 5.825C11.3849 5.825 9.67236 5.7875 7.87236 7.1375C7.87236 7.1375 6.07236 10.4 6.07236 14.425C6.07236 14.425 7.12236 16.2375 9.88486 16.325C9.88486 16.325 10.3474 15.7625 10.7224 15.2875C9.13486 14.8125 8.53486 13.8125 8.53486 13.8125C8.71875 13.9412 9.02197 14.1081 9.04736 14.125C11.1572 15.3065 14.1542 15.6937 16.8474 14.5625C17.2849 14.4 17.7724 14.1625 18.2849 13.825C18.2849 13.825 17.6599 14.85 16.0224 15.3125C16.3974 15.7875 16.8474 16.325 16.8474 16.325C19.6099 16.2375 20.6724 14.425 20.6724 14.425Z" fill="white" fill-opacity="0.5"/>
</g>
</svg>
