<svg width="121" height="34" viewBox="0 0 121 34" fill="none" xmlns="http://www.w3.org/2000/svg">
<path id="Ellipse 69" d="M60.5 2.5C60.7761 2.5 61 2.27614 61 2C61 1.72386 60.7761 1.5 60.5 1.5V2.5ZM75.4228 2.49153L80.1818 5.76044L80.6333 0.00461519L75.4228 2.49153ZM119.5 17.5C119.5 19.3643 118.041 21.273 115.062 23.1076C112.111 24.9249 107.808 26.5796 102.447 27.9763C91.7313 30.7677 76.9006 32.5 60.5 32.5V33.5C76.9603 33.5 91.8797 31.7625 102.699 28.944C108.105 27.5358 112.515 25.8505 115.586 23.959C118.63 22.0848 120.5 19.916 120.5 17.5H119.5ZM60.5 32.5C44.0994 32.5 29.2687 30.7677 18.5532 27.9763C13.1917 26.5796 8.88871 24.9249 5.93801 23.1076C2.9594 21.273 1.5 19.3643 1.5 17.5H0.5C0.5 19.916 2.37048 22.0848 5.4136 23.959C8.48463 25.8505 12.8952 27.5358 18.3011 28.944C29.1203 31.7625 44.0397 33.5 60.5 33.5V32.5ZM1.5 17.5C1.5 15.6357 2.9594 13.727 5.93801 11.8924C8.88871 10.0751 13.1917 8.42039 18.5532 7.0237C29.2687 4.23226 44.0994 2.5 60.5 2.5V1.5C44.0397 1.5 29.1203 3.23753 18.3011 6.05599C12.8952 7.46425 8.48463 9.14952 5.4136 11.041C2.37048 12.9152 0.5 15.084 0.5 17.5H1.5ZM79.8679 3.3417C91.5088 4.38786 101.485 6.34883 108.536 8.88248C112.064 10.1503 114.831 11.5515 116.707 13.0328C118.59 14.5194 119.5 16.0244 119.5 17.5H120.5C120.5 15.5808 119.316 13.8184 117.327 12.248C115.331 10.6723 112.451 9.22689 108.874 7.94139C101.713 5.36846 91.6456 3.39612 79.9574 2.34571L79.8679 3.3417Z" fill="white"/>
</svg>
