<svg width="26" height="25" viewBox="0 0 26 25" fill="none" xmlns="http://www.w3.org/2000/svg">
<g id="instagram">
<path id="Vector" d="M13.3025 6.88477C10.197 6.88477 7.69214 9.38965 7.69214 12.4951C7.69214 15.6006 10.197 18.1055 13.3025 18.1055C16.408 18.1055 18.9128 15.6006 18.9128 12.4951C18.9128 9.38965 16.408 6.88477 13.3025 6.88477ZM13.3025 16.1426C11.2957 16.1426 9.65503 14.5068 9.65503 12.4951C9.65503 10.4834 11.2908 8.84766 13.3025 8.84766C15.3142 8.84766 16.95 10.4834 16.95 12.4951C16.95 14.5068 15.3093 16.1426 13.3025 16.1426ZM20.4509 6.65527C20.4509 7.38281 19.865 7.96387 19.1423 7.96387C18.4148 7.96387 17.8337 7.37793 17.8337 6.65527C17.8337 5.93262 18.4197 5.34668 19.1423 5.34668C19.865 5.34668 20.4509 5.93262 20.4509 6.65527ZM24.1667 7.9834C24.0837 6.23047 23.6833 4.67773 22.3992 3.39844C21.1199 2.11914 19.5671 1.71875 17.8142 1.63086C16.0076 1.52832 10.5925 1.52832 8.78589 1.63086C7.03784 1.71387 5.48511 2.11426 4.20093 3.39355C2.91675 4.67285 2.52124 6.22559 2.43335 7.97852C2.33081 9.78516 2.33081 15.2002 2.43335 17.0068C2.51636 18.7598 2.91675 20.3125 4.20093 21.5918C5.48511 22.8711 7.03296 23.2715 8.78589 23.3594C10.5925 23.4619 16.0076 23.4619 17.8142 23.3594C19.5671 23.2764 21.1199 22.876 22.3992 21.5918C23.6785 20.3125 24.0789 18.7598 24.1667 17.0068C24.2693 15.2002 24.2693 9.79004 24.1667 7.9834ZM21.8328 18.9453C21.4519 19.9023 20.7146 20.6396 19.7527 21.0254C18.3123 21.5967 14.8943 21.4648 13.3025 21.4648C11.7107 21.4648 8.28784 21.5918 6.85229 21.0254C5.89526 20.6445 5.15796 19.9072 4.77222 18.9453C4.20093 17.5049 4.33276 14.0869 4.33276 12.4951C4.33276 10.9033 4.20581 7.48047 4.77222 6.04492C5.15308 5.08789 5.89038 4.35059 6.85229 3.96484C8.29272 3.39355 11.7107 3.52539 13.3025 3.52539C14.8943 3.52539 18.3171 3.39844 19.7527 3.96484C20.7097 4.3457 21.447 5.08301 21.8328 6.04492C22.4041 7.48535 22.2722 10.9033 22.2722 12.4951C22.2722 14.0869 22.4041 17.5098 21.8328 18.9453Z" fill="white" fill-opacity="0.5"/>
</g>
</svg>
