<svg width="21" height="17" viewBox="0 0 21 17" fill="none" xmlns="http://www.w3.org/2000/svg">
<path id="Vector" fill-rule="evenodd" clip-rule="evenodd" d="M12.1785 16.2971C11.9565 16.4621 11.7155 16.5971 11.4505 16.6691C10.7045 16.8691 9.88952 16.5701 9.17752 16.3691C4.40452 15.0271 1.20752 12.9241 0.290519 9.78613C-0.441481 7.28013 0.262519 4.77013 1.81052 3.21013C3.24452 1.76513 5.37052 1.17913 7.55152 2.11813C8.97152 0.21413 11.1065 -0.34187 13.0705 0.19313C15.1905 0.77013 17.0545 2.59213 17.6735 5.12813C17.7955 5.62513 17.8555 6.13213 17.8565 6.64713C18.1115 6.77713 18.3535 6.93913 18.5765 7.12713C19.7335 8.10613 20.3515 9.76913 20.0065 11.4981C19.5665 13.7041 17.5215 15.2531 14.5965 16.3591C14.0955 16.5491 13.5475 16.7841 13.0005 16.6881C12.6965 16.6341 12.4245 16.4771 12.1785 16.2971ZM2.21052 9.22613C1.67552 7.39313 2.21352 5.64513 3.23052 4.62013C4.20652 3.63613 5.65352 3.27013 7.25352 4.20613C7.81252 4.53313 8.53352 4.33913 8.85352 3.77813C9.77152 2.16713 11.2075 1.76013 12.5445 2.12413C13.9385 2.50413 15.2785 3.74813 15.7305 5.60313C15.7855 5.82613 15.8225 6.05413 15.8405 6.28813C15.4741 6.3348 15.1168 6.43627 14.7805 6.58913C13.7065 5.54213 12.2845 5.33613 11.0305 5.79813C9.60852 6.32113 8.45852 7.67313 8.19052 9.41613C7.91752 11.2011 8.76052 12.9411 10.3295 14.6141C10.1315 14.5641 9.92652 14.5041 9.71952 14.4461C5.08852 13.1431 2.81952 11.3111 2.21052 9.22613ZM10.1685 9.71913C10.3285 8.66913 11.0075 7.93813 11.7215 7.67413C12.3815 7.43213 13.1145 7.55913 13.6715 8.36413C13.7546 8.48408 13.8606 8.58637 13.9834 8.6651C14.1062 8.74384 14.2434 8.79745 14.3871 8.82283C14.5308 8.84822 14.678 8.84488 14.8204 8.813C14.9628 8.78113 15.0974 8.72135 15.2165 8.63713C16.0165 8.07013 16.7485 8.20213 17.2845 8.65513C17.8665 9.14713 18.2525 10.0671 18.0445 11.1081C17.8195 12.2381 16.6765 13.4361 13.8895 14.4891C13.7125 14.5561 13.5365 14.6281 13.3545 14.6811C13.2015 14.5681 13.0605 14.4411 12.9165 14.3181C10.6585 12.3751 9.99352 10.8591 10.1685 9.71913Z" fill="white"/>
</svg>
