<svg width="26" height="25" viewBox="0 0 26 25" fill="none" xmlns="http://www.w3.org/2000/svg">
<g id="youtube" clip-path="url(#clip0_198_613)">
<path id="Vector" d="M24.6537 6.77444C24.3811 5.74797 23.5779 4.93954 22.5581 4.6652C20.7095 4.16667 13.2972 4.16667 13.2972 4.16667C13.2972 4.16667 5.88485 4.16667 4.03628 4.6652C3.01645 4.93959 2.21324 5.74797 1.94062 6.77444C1.44531 8.63499 1.44531 12.5168 1.44531 12.5168C1.44531 12.5168 1.44531 16.3987 1.94062 18.2592C2.21324 19.2857 3.01645 20.0605 4.03628 20.3348C5.88485 20.8333 13.2972 20.8333 13.2972 20.8333C13.2972 20.8333 20.7095 20.8333 22.5581 20.3348C23.5779 20.0605 24.3811 19.2857 24.6537 18.2592C25.149 16.3987 25.149 12.5168 25.149 12.5168C25.149 12.5168 25.149 8.63499 24.6537 6.77444ZM10.8729 16.0413V8.99241L17.0682 12.5169L10.8729 16.0413Z" fill="white" fill-opacity="0.5"/>
</g>
<defs>
<clipPath id="clip0_198_613">
<rect width="25" height="25" fill="white" transform="translate(0.797363)"/>
</clipPath>
</defs>
</svg>
